# xmcd database file
#
# Track frame offsets:
# 150
# 20875
# 62421
# 87853
# 123313
# 151606
# 191605
# 218578
# 231148
# 248876
#
# Disc length: 3559 seconds
#
# Revision: 2
# Processed by: cddbd v1.5.1PL0 Copyright (c) Steve Scherf et al.
# Submitted via: CD-Runner 2005.30
#
DISCID=790de50a
DTITLE=Buddy Guy and Junior Wells - Buddy Guy and Junior Wells Play The Blues [CD2]
DYEAR=2005
DGENRE=Blues
TTITLE0=Tears, Tears, Tears
TTITLE1=Love Her With A Feeling
TTITLE2=Checkin' Up On My Baby
TTITLE3=Last Night
TTITLE4=First Time I Met The Blues
TTITLE5=D Blues
TTITLE6=Bad Bad Whiskey (Long Version)
TTITLE7=You're So Fine (Mono Rough Mix)
TTITLE8=Why Am I Treated So Bad? (Playin The Blues)(Mono Rough Mix)
TTITLE9=Sweet Home Chicago (Mono Rough Mix)
EXTD=
EXTT0=
EXTT1=
EXTT2=
EXTT3=
EXTT4=
EXTT5=
EXTT6=
EXTT7=
EXTT8=
EXTT9=
PLAYORDER=
